<svg xmlns="http://www.w3.org/2000/svg" width="44" height="44" viewBox="0 0 44 44"><defs><style>.a{fill:#5519c2;}.b{fill:#441b8f;}.c{fill:#fff;}</style></defs><g transform="translate(-1812 -56)"><circle class="a" cx="22" cy="22" r="22" transform="translate(1812 56)"/><g transform="translate(1797.746 26.072)"><path class="b" d="M26.173,48.831s1.75-1.863,2.992-2.145,10.329-1.242,14.845,0S47,56.733,47.171,57.58s-17.047.564-17.047.564-4.911-1.976-4.8-5.137S26.173,48.831,26.173,48.831Z"/><g transform="translate(24.903 45.777)"><path class="c" d="M47.8,58.525H31.277a6.374,6.374,0,1,1,0-12.748H41.424A6.381,6.381,0,0,1,47.8,52.151Zm-16.521-11.9a5.523,5.523,0,1,0,0,11.046H46.948V52.151a5.53,5.53,0,0,0-5.523-5.523Z" transform="translate(-24.903 -45.777)"/></g><g transform="translate(29.154 50.314)"><circle class="c" cx="1.837" cy="1.837" r="1.837" transform="translate(0 0)"/></g><g transform="translate(34.934 50.314)"><circle class="c" cx="1.837" cy="1.837" r="1.837" transform="translate(0 0)"/></g><g transform="translate(40.714 50.314)"><circle class="c" cx="1.837" cy="1.837" r="1.837" transform="translate(0 0)"/></g></g></g></svg>